<svg viewBox="0 0 333.86 391.83" xmlns="http://www.w3.org/2000/svg">
  <path d="M 0.7217027988454987,0.5254833995938952 C 0.021702798845495863,1.125483399593918 -0.2782972011545013,190.8254833995939 0.321702798845493,190.8254833995939 C 0.5217027988454959,190.8254833995939 5.721702798845499,188.5254833995939 12.021702798845496,185.72548339959394 L 23.521702798845496,180.62548339959392 L 48.021702798845496,178.3254833995939 C 61.521702798845496,177.0254833995939 73.7217027988455,175.5254833995939 75.1217027988455,174.8254833995939 C 77.6217027988455,173.72548339959394 78.6217027988455,174.22548339959394 91.52170279884551,182.8254833995939 L 105.3217027988455,192.12548339959392 L 111.6217027988455,191.5254833995939 C 116.52170279884551,191.0254833995939 119.2217027988455,191.3254833995939 123.7217027988455,192.92548339959393 C 126.92170279884552,194.0254833995939 132.4217027988455,195.42548339959393 136.02170279884552,195.8254833995939 C 141.9217027988455,196.62548339959392 152.02170279884552,200.92548339959393 152.02170279884552,202.62548339959392 C 152.02170279884552,203.02548339959395 150.6217027988455,204.62548339959392 148.82170279884548,206.12548339959392 L 145.52170279884552,208.92548339959393 L 149.02170279884552,208.3254833995939 C 150.9217027988455,207.92548339959393 153.4217027988455,207.42548339959393 154.6217027988455,207.12548339959392 C 155.7217027988455,206.92548339959393 157.7217027988455,207.52548339959395 159.02170279884552,208.62548339959392 L 161.4217027988455,210.52548339959395 L 159.4217027988455,213.3254833995939 C 157.6217027988455,215.72548339959394 157.52170279884552,216.72548339959394 158.32170279884548,221.3254833995939 C 159.32170279884548,226.62548339959392 159.4217027988455,226.72548339959394 164.32170279884548,228.52548339959395 C 169.2217027988455,230.22548339959394 169.52170279884552,230.62548339959392 172.2217027988455,237.3254833995939 C 174.52170279884552,242.92548339959393 176.2217027988455,245.42548339959393 181.1217027988455,249.8254833995939 C 186.82170279884548,254.92548339959393 187.2217027988455,255.72548339959394 187.9217027988455,260.82548339959396 C 188.52170279884552,265.32548339959396 188.32170279884548,266.82548339959396 186.7217027988455,269.1254833995939 C 184.9217027988455,271.72548339959394 184.9217027988455,271.92548339959393 186.7217027988455,274.1254833995939 C 191.52170279884552,280.22548339959394 198.6217027988455,287.82548339959396 199.52170279884547,287.82548339959396 C 200.1217027988455,287.82548339959396 202.2217027988455,287.32548339959396 204.32170279884548,286.72548339959394 L 208.2217027988455,285.72548339959394 L 207.52170279884547,277.92548339959393 L 206.82170279884548,270.22548339959394 L 210.82170279884548,268.42548339959393 C 213.52170279884547,267.22548339959394 217.1217027988455,263.72548339959394 222.02170279884547,257.82548339959396 C 227.6217027988455,251.02548339959392 230.02170279884547,248.8254833995939 233.02170279884547,247.92548339959393 C 238.32170279884548,246.3254833995939 244.52170279884547,239.22548339959394 246.1217027988455,232.8254833995939 C 246.9217027988455,229.62548339959392 248.9217027988455,226.12548339959392 251.7217027988455,222.92548339959393 C 254.52170279884552,219.72548339959394 256.0217027988455,217.02548339959395 256.1217027988455,215.12548339959392 C 256.2217027988455,212.72548339959394 256.5217027988455,213.02548339959395 258.6217027988455,217.72548339959394 C 260.0217027988455,220.62548339959392 260.9217027988455,223.12548339959392 260.8217027988455,223.3254833995939 C 253.1217027988455,228.52548339959395 252.9217027988455,229.12548339959392 255.6217027988455,237.3254833995939 L 257.3217027988455,242.12548339959392 L 252.02170279884552,246.72548339959394 L 246.82170279884548,251.32548339959394 L 245.7217027988455,266.5254833995939 L 244.6217027988455,281.72548339959394 L 238.32170279884548,283.5254833995939 L 232.02170279884547,285.32548339959396 L 229.52170279884547,292.72548339959394 C 228.1217027988455,296.82548339959396 227.2217027988455,300.32548339959396 227.4217027988455,300.5254833995939 C 228.02170279884547,301.22548339959394 253.52170279884552,293.72548339959394 254.7217027988455,292.5254833995939 C 255.32170279884548,291.82548339959396 257.2217027988455,287.82548339959396 258.9217027988455,283.5254833995939 C 261.3217027988455,277.22548339959394 261.8217027988455,274.72548339959394 261.3217027988455,270.82548339959396 C 260.7217027988455,265.82548339959396 261.6217027988455,258.82548339959396 262.8217027988455,258.82548339959396 C 264.2217027988455,258.82548339959396 268.0217027988455,266.82548339959396 268.0217027988455,269.82548339959396 C 268.0217027988455,271.92548339959393 269.1217027988455,274.1254833995939 271.9217027988455,277.1254833995939 L 275.7217027988455,281.32548339959396 L 272.8217027988455,290.32548339959396 C 270.3217027988455,297.72548339959394 269.1217027988455,299.92548339959393 265.7217027988455,302.92548339959393 L 261.6217027988455,306.5254833995939 L 268.4217027988455,307.5254833995939 C 273.4217027988455,308.22548339959394 276.9217027988455,308.22548339959394 281.2217027988455,307.32548339959396 L 287.1217027988455,306.0254833995939 L 293.9217027988455,314.22548339959394 C 297.7217027988455,318.6254833995939 301.1217027988455,323.42548339959393 301.5217027988455,324.82548339959396 C 301.9217027988455,326.22548339959394 304.0217027988455,331.42548339959393 306.2217027988455,336.5254833995939 L 310.2217027988455,345.72548339959394 L 307.9217027988455,349.72548339959394 C 305.8217027988455,353.5254833995939 305.8217027988455,354.0254833995939 307.0217027988455,359.82548339959396 C 308.2217027988455,365.42548339959393 308.8217027988455,366.42548339959393 314.1217027988455,370.92548339959393 C 318.5217027988455,374.82548339959396 320.3217027988455,377.22548339959394 322.0217027988455,381.72548339959394 C 323.8217027988455,386.72548339959394 324.7217027988455,387.72548339959394 328.6217027988455,389.6254833995939 C 331.0217027988455,390.82548339959396 333.3217027988455,391.82548339959396 333.5217027988455,391.82548339959396 C 333.8217027988455,391.82548339959396 333.9217027988455,303.72548339959394 333.8217027988455,196.0254833995939 L 333.5217027988455,0.3254833995939066 L 167.4217027988455,0.02548339959389523 C 76.1217027988455,-0.07451660040607067 1.0217027988454959,0.12548339959391797 0.7217027988454987,0.5254833995938952"
        fill="none"
        stroke="#8F7058"
        stroke-width="1.6"
        stroke-linecap="round"
        stroke-linejoin="round"
        opacity="0.9"
        pathLength="1"
        stroke-dasharray="1"
        stroke-dashoffset="1">
    <animate attributeName="stroke-dashoffset" from="1" to="0" begin="0.1s" dur="2.2s" calcMode="spline" keySplines="0.4 0 0.2 1" fill="freeze"/>
  </path>
</svg>